<?xml version="1.0" encoding="UTF-8" standalone="no"?>
<!-- Created with Inkscape (http://www.inkscape.org/) -->

<svg
   xmlns:dc="http://purl.org/dc/elements/1.1/"
   xmlns:cc="http://creativecommons.org/ns#"
   xmlns:rdf="http://www.w3.org/1999/02/22-rdf-syntax-ns#"
   xmlns:svg="http://www.w3.org/2000/svg"
   xmlns="http://www.w3.org/2000/svg"
   xmlns:sodipodi="http://sodipodi.sourceforge.net/DTD/sodipodi-0.dtd"
   xmlns:inkscape="http://www.inkscape.org/namespaces/inkscape"
   width="350"
   height="100"
   id="svg2"
   version="1.1"
   inkscape:version="0.48+devel r12790"
   viewBox="0 0 98.778274 28.222503"
   sodipodi:docname="logo.svg">
  <defs
     id="defs4" />
  <sodipodi:namedview
     id="base"
     pagecolor="#ffffff"
     bordercolor="#666666"
     borderopacity="1.0"
     inkscape:pageopacity="0.0"
     inkscape:pageshadow="2"
     inkscape:zoom="1.4"
     inkscape:cx="155.70496"
     inkscape:cy="42.746664"
     inkscape:document-units="px"
     inkscape:current-layer="layer1"
     showgrid="false"
     units="px"
     inkscape:window-width="1163"
     inkscape:window-height="614"
     inkscape:window-x="293"
     inkscape:window-y="260"
     inkscape:window-maximized="0" />
  <metadata
     id="metadata7">
    <rdf:RDF>
      <cc:Work
         rdf:about="">
        <dc:format>image/svg+xml</dc:format>
        <dc:type
           rdf:resource="http://purl.org/dc/dcmitype/StillImage" />
        <dc:title />
      </cc:Work>
    </rdf:RDF>
  </metadata>
  <g
     inkscape:label="Camada 1"
     inkscape:groupmode="layer"
     id="layer1"
     transform="translate(0,-268.78262)">
    <g
       transform="scale(0.97699742,1.0235442)"
       style="font-size:11.06319427px;font-style:normal;font-variant:normal;font-weight:bold;font-stretch:normal;line-height:123.00000191%;letter-spacing:0px;word-spacing:0px;fill:#f6e574;fill-opacity:1;stroke:none;font-family:Microsoft Tai Le;-inkscape-font-specification:Microsoft Tai Le Bold"
       id="text4091">
      <path
         d="m 7.7672556,273.04761 -1.7610358,0 -3.1925526,-4.86716 Q 2.5327657,267.7537 2.4247267,267.53762 l -0.021608,0 q 0.043216,0.41055 0.043216,1.25325 l 0,4.25674 -1.64759482,0 0,-7.7464 1.87987872,0 3.0737097,4.7159 q 0.2106761,0.31872 0.3889405,0.63203 l 0.021608,0 q -0.043216,-0.2701 -0.043216,-1.06418 l 0,-4.28375 1.6475948,0 0,7.7464 z"
         style=""
         id="path4162" />
      <path
         d="m 12.018591,273.18266 q -1.3829,0 -2.1769863,-0.77248 -0.7886848,-0.77788 -0.7886848,-2.10676 0,-1.3721 0.8210965,-2.14458 0.8210966,-0.77788 2.2202016,-0.77788 1.377497,0 2.16078,0.77788 0.783283,0.77248 0.783283,2.04734 0,1.3775 -0.810293,2.17699 -0.80489,0.79949 -2.209397,0.79949 z m 0.04322,-4.49443 q -0.605018,0 -0.939939,0.41595 -0.334921,0.41595 -0.334921,1.17763 0,1.59357 1.285664,1.59357 1.226243,0 1.226243,-1.63679 0,-1.55036 -1.237047,-1.55036 z"
         style=""
         id="path4164" />
      <path
         d="m 21.412582,267.51601 -2.058143,5.5316 -1.944702,0 -1.960908,-5.5316 1.825859,0 0.961547,3.40863 q 0.162059,0.57801 0.189069,0.98316 l 0.02161,0 q 0.03781,-0.38354 0.199873,-0.95075 l 0.983155,-3.44104 1.782643,0 z"
         style=""
         id="path4166" />
      <path
         d="m 26.755111,273.04761 -1.615183,0 0,-0.79409 -0.02161,0 q -0.556401,0.92914 -1.647595,0.92914 -0.804891,0 -1.269458,-0.45377 -0.459166,-0.45916 -0.459166,-1.22084 0,-1.60978 1.906888,-1.85827 l 1.501743,-0.19987 q 0,-0.90753 -0.983155,-0.90753 -0.988557,0 -1.879879,0.58881 l 0,-1.28566 q 0.356529,-0.18367 0.972351,-0.32412 0.621224,-0.14045 1.129008,-0.14045 2.366054,0 2.366054,2.36065 l 0,3.306 z m -1.604379,-2.24721 0,-0.37274 -1.004763,0.12965 q -0.831901,0.10804 -0.831901,0.75087 0,0.2917 0.199873,0.48077 0.205274,0.18367 0.550999,0.18367 0.480773,0 0.783282,-0.32952 0.30251,-0.33492 0.30251,-0.8427 z"
         style=""
         id="path4168" />
      <path
         d="m 36.883769,272.77211 q -0.848106,0.41055 -2.2148,0.41055 -1.782644,0 -2.803612,-1.04798 -1.020969,-1.04798 -1.020969,-2.79281 0,-1.85827 1.145214,-3.01429 1.150615,-1.15602 2.981876,-1.15602 1.13441,0 1.912291,0.28631 l 0,1.68 q -0.777881,-0.46456 -1.77184,-0.46456 -1.091194,0 -1.761036,0.68604 -0.669842,0.68605 -0.669842,1.85827 0,1.12361 0.632029,1.79345 0.632028,0.66444 1.701614,0.66444 1.020969,0 1.869075,-0.49698 l 0,1.59358 z"
         style=""
         id="path4170" />
      <path
         d="m 42.68006,273.04761 -1.615183,0 0,-0.79409 -0.02161,0 q -0.556401,0.92914 -1.647595,0.92914 -0.804891,0 -1.269459,-0.45377 -0.459165,-0.45916 -0.459165,-1.22084 0,-1.60978 1.906888,-1.85827 l 1.501742,-0.19987 q 0,-0.90753 -0.983155,-0.90753 -0.988557,0 -1.879878,0.58881 l 0,-1.28566 q 0.356528,-0.18367 0.972351,-0.32412 0.621224,-0.14045 1.129007,-0.14045 2.366054,0 2.366054,2.36065 l 0,3.306 z m -1.604379,-2.24721 0,-0.37274 -1.004763,0.12965 q -0.8319,0.10804 -0.8319,0.75087 0,0.2917 0.199872,0.48077 0.205274,0.18367 0.550999,0.18367 0.480774,0 0.783283,-0.32952 0.302509,-0.33492 0.302509,-0.8427 z"
         style=""
         id="path4172" />
      <path
         d="m 47.649854,269.05557 q -0.307911,-0.16746 -0.718459,-0.16746 -0.556401,0 -0.869714,0.41054 -0.313313,0.40515 -0.313313,1.1074 l 0,2.64156 -1.707016,0 0,-5.5316 1.707016,0 0,1.02637 0.02161,0 q 0.405146,-1.1236 1.458526,-1.1236 0.270098,0 0.421352,0.0648 l 0,1.57197 z"
         style=""
         id="path4174" />
      <path
         d="m 51.793152,272.98278 q -0.378136,0.19988 -1.139811,0.19988 -1.804252,0 -1.804252,-1.87448 l 0,-2.53352 -0.896724,0 0,-1.25865 0.896724,0 0,-1.19383 1.701615,-0.48618 0,1.68001 1.242448,0 0,1.25865 -1.242448,0 0,2.23641 q 0,0.86431 0.686047,0.86431 0.270098,0 0.556401,-0.15665 l 0,1.26405 z"
         style=""
         id="path4176" />
      <path
         d="m 55.38545,273.18266 q -1.382899,0 -2.176986,-0.77248 -0.788685,-0.77788 -0.788685,-2.10676 0,-1.3721 0.821097,-2.14458 0.821096,-0.77788 2.220201,-0.77788 1.377498,0 2.160781,0.77788 0.783282,0.77248 0.783282,2.04734 0,1.3775 -0.810292,2.17699 -0.804891,0.79949 -2.209398,0.79949 z m 0.04322,-4.49443 q -0.605019,0 -0.93994,0.41595 -0.334921,0.41595 -0.334921,1.17763 0,1.59357 1.285665,1.59357 1.226242,0 1.226242,-1.63679 0,-1.55036 -1.237046,-1.55036 z"
         style=""
         id="path4178" />
      <path
         d="m 64.936097,272.41558 q 0,1.53956 -0.891322,2.38226 -0.891321,0.84811 -2.582132,0.84811 -1.118204,0 -1.77184,-0.31872 l 0,-1.43692 q 0.853509,0.49698 1.723223,0.49698 0.864312,0 1.339683,-0.45916 0.475372,-0.45377 0.475372,-1.23705 l 0,-0.43756 -0.02161,0 q -0.58341,0.92914 -1.723222,0.92914 -1.058782,0 -1.680007,-0.74547 -0.621224,-0.74547 -0.621224,-1.99872 0,-1.40451 0.69145,-2.23101 0.691449,-0.8265 1.820457,-0.8265 1.010165,0 1.512546,0.77788 l 0.02161,0 0,-0.64283 1.707016,0 0,4.89957 z m -1.685408,-2.02573 0,-0.43756 q 0,-0.52399 -0.313313,-0.89132 -0.307912,-0.37274 -0.804891,-0.37274 -0.567205,0 -0.891322,0.44296 -0.324117,0.44296 -0.324117,1.24785 0,0.69145 0.307911,1.0966 0.307912,0.39974 0.842705,0.39974 0.529391,0 0.853508,-0.40514 0.329519,-0.41055 0.329519,-1.08039 z"
         style=""
         id="path4180" />
      <path
         d="m 69.970716,269.05557 q -0.307911,-0.16746 -0.718459,-0.16746 -0.556401,0 -0.869714,0.41054 -0.313313,0.40515 -0.313313,1.1074 l 0,2.64156 -1.707017,0 0,-5.5316 1.707017,0 0,1.02637 0.02161,0 q 0.405147,-1.1236 1.458527,-1.1236 0.270098,0 0.421352,0.0648 l 0,1.57197 z"
         style=""
         id="path4182" />
      <path
         d="m 75.372665,273.04761 -1.615184,0 0,-0.79409 -0.02161,0 q -0.556401,0.92914 -1.647595,0.92914 -0.804891,0 -1.269459,-0.45377 -0.459165,-0.45916 -0.459165,-1.22084 0,-1.60978 1.906888,-1.85827 l 1.501742,-0.19987 q 0,-0.90753 -0.983155,-0.90753 -0.988557,0 -1.879878,0.58881 l 0,-1.28566 q 0.356528,-0.18367 0.972351,-0.32412 0.621224,-0.14045 1.129007,-0.14045 2.366055,0 2.366055,2.36065 l 0,3.306 z m -1.60438,-2.24721 0,-0.37274 -1.004762,0.12965 q -0.831901,0.10804 -0.831901,0.75087 0,0.2917 0.199872,0.48077 0.205274,0.18367 0.550999,0.18367 0.480774,0 0.783283,-0.32952 0.302509,-0.33492 0.302509,-0.8427 z"
         style=""
         id="path4184" />
      <path
         d="m 80.342458,266.16552 q -0.329519,-0.12964 -0.632028,-0.12964 -0.821096,0 -0.821096,0.89132 l 0,0.58881 1.264056,0 0,1.25865 -1.264056,0 0,4.27295 -1.701615,0 0,-4.27295 -0.929135,0 0,-1.25865 0.929135,0 0,-0.68605 q 0,-0.94534 0.615823,-1.52335 0.615822,-0.57801 1.674604,-0.57801 0.518588,0 0.864312,0.10804 l 0,1.32888 z"
         style=""
         id="path4186" />
      <path
         d="m 81.833398,266.64089 q -0.432156,0 -0.707656,-0.25389 -0.275499,-0.25929 -0.275499,-0.63203 0,-0.38353 0.275499,-0.62662 0.2755,-0.24309 0.707656,-0.24309 0.437558,0 0.707655,0.24309 0.2755,0.24309 0.2755,0.62662 0,0.38894 -0.2755,0.63743 -0.270097,0.24849 -0.707655,0.24849 z m 0.842704,6.40672 -1.707016,0 0,-5.5316 1.707016,0 0,5.5316 z"
         style=""
         id="path4188" />
      <path
         d="m 88.726287,273.04761 -1.615183,0 0,-0.79409 -0.02161,0 q -0.556401,0.92914 -1.647595,0.92914 -0.80489,0 -1.269458,-0.45377 -0.459166,-0.45916 -0.459166,-1.22084 0,-1.60978 1.906889,-1.85827 l 1.501742,-0.19987 q 0,-0.90753 -0.983155,-0.90753 -0.988557,0 -1.879879,0.58881 l 0,-1.28566 q 0.356529,-0.18367 0.972351,-0.32412 0.621224,-0.14045 1.129008,-0.14045 2.366054,0 2.366054,2.36065 l 0,3.306 z m -1.604379,-2.24721 0,-0.37274 -1.004763,0.12965 q -0.8319,0.10804 -0.8319,0.75087 0,0.2917 0.199872,0.48077 0.205274,0.18367 0.550999,0.18367 0.480773,0 0.783283,-0.32952 0.302509,-0.33492 0.302509,-0.8427 z"
         style=""
         id="path4190" />
      <path
         d="m 0.44221096,286.35823 0,-1.72862 q 0.46996968,0.39434 1.02096864,0.59421 0.5509989,0.19447 1.1128017,0.19447 0.329519,0 0.5726068,-0.0594 0.2484897,-0.0594 0.4105482,-0.16206 0.1674605,-0.10804 0.2484897,-0.24849 0.081029,-0.14585 0.081029,-0.31331 0,-0.22688 -0.1296468,-0.40515 -0.1296468,-0.17826 -0.3565288,-0.32952 -0.2214799,-0.15125 -0.5293911,-0.2917 -0.3079112,-0.14045 -0.6644399,-0.28631 -0.9075276,-0.37813 -1.35588952,-0.92373 -0.44295992,-0.5456 -0.44295992,-1.31808 0,-0.60501 0.24308776,-1.03717 0.24308777,-0.43756 0.65903798,-0.71846 0.4213521,-0.2809 0.972351,-0.41055 0.550999,-0.13505 1.1668213,-0.13505 0.6050184,0 1.0695862,0.0756 0.4699696,0.0702 0.864312,0.22148 l 0,1.61518 q -0.1944702,-0.13505 -0.4267541,-0.23768 -0.2268819,-0.10264 -0.4699696,-0.16746 -0.2430878,-0.0702 -0.4861756,-0.10264 -0.2376858,-0.0324 -0.4537638,-0.0324 -0.2971073,0 -0.540195,0.0594 -0.2430878,0.054 -0.4105483,0.15666 -0.1674604,0.10263 -0.2592936,0.24849 -0.091833,0.14045 -0.091833,0.31871 0,0.19447 0.102637,0.35113 0.1026371,0.15125 0.2917053,0.2917 0.1890683,0.13505 0.4591658,0.2701 0.2700975,0.12965 0.6104204,0.2701 0.4645677,0.19447 0.8319004,0.41595 0.3727345,0.21608 0.6374301,0.49158 0.2646956,0.2755 0.4051463,0.63202 0.1404507,0.35113 0.1404507,0.8211 0,0.64823 -0.2484897,1.09119 -0.2430878,0.43756 -0.6644399,0.71306 -0.4213522,0.2701 -0.983155,0.38894 -0.5564009,0.11885 -1.1776252,0.11885 -0.6374301,0 -1.2154388,-0.10804 -0.57260672,-0.10804 -0.99395884,-0.32412 z"
         style=""
         id="path4192" />
      <path
         d="m 9.4688699,286.79039 q -1.3828993,0 -2.176986,-0.77248 -0.7886847,-0.77788 -0.7886847,-2.10676 0,-1.3721 0.8210964,-2.14458 0.8210965,-0.77788 2.2202016,-0.77788 1.3774978,0 2.1607798,0.77788 0.783283,0.77248 0.783283,2.04734 0,1.3775 -0.810292,2.17699 -0.804891,0.79949 -2.2093981,0.79949 z m 0.043216,-4.49443 q -0.6050185,0 -0.9399394,0.41595 -0.3349209,0.41595 -0.3349209,1.17763 0,1.59357 1.2856642,1.59357 1.2262426,0 1.2262426,-1.63679 0,-1.55036 -1.2370465,-1.55036 z"
         style=""
         id="path4194" />
      <path
         d="m 17.787873,286.45546 q -0.578008,0.33493 -1.669202,0.33493 -1.274861,0 -2.063545,-0.77248 -0.788685,-0.77248 -0.788685,-1.99332 0,-1.40991 0.842704,-2.2202 0.848106,-0.8157 2.263417,-0.8157 0.977753,0 1.415311,0.25929 l 0,1.44773 q -0.534793,-0.39975 -1.193831,-0.39975 -0.734665,0 -1.166821,0.43216 -0.426754,0.42675 -0.426754,1.18303 0,0.73466 0.410548,1.15601 0.410548,0.41595 1.129008,0.41595 0.63743,0 1.24785,-0.39974 l 0,1.37209 z"
         style=""
         id="path4196" />
      <path
         d="m 19.775792,280.24862 q -0.432156,0 -0.707655,-0.25389 -0.2755,-0.25929 -0.2755,-0.63203 0,-0.38353 0.2755,-0.62662 0.275499,-0.24309 0.707655,-0.24309 0.437558,0 0.707656,0.24309 0.275499,0.24309 0.275499,0.62662 0,0.38894 -0.275499,0.63743 -0.270098,0.24849 -0.707656,0.24849 z m 0.842704,6.40672 -1.707016,0 0,-5.5316 1.707016,0 0,5.5316 z"
         style=""
         id="path4198" />
      <path
         d="m 26.668679,286.65534 -1.615183,0 0,-0.79409 -0.02161,0 q -0.556401,0.92914 -1.647594,0.92914 -0.804891,0 -1.269459,-0.45377 -0.459166,-0.45916 -0.459166,-1.22084 0,-1.60978 1.906889,-1.85827 l 1.501742,-0.19987 q 0,-0.90753 -0.983155,-0.90753 -0.988557,0 -1.879879,0.58881 l 0,-1.28566 q 0.356529,-0.18367 0.972351,-0.32412 0.621225,-0.14045 1.129008,-0.14045 2.366054,0 2.366054,2.36065 l 0,3.306 z m -1.604379,-2.24721 0,-0.37274 -1.004763,0.12965 q -0.8319,0.10804 -0.8319,0.75087 0,0.2917 0.199872,0.48077 0.205274,0.18367 0.550999,0.18367 0.480774,0 0.783283,-0.32952 0.302509,-0.33492 0.302509,-0.8427 z"
         style=""
         id="path4200" />
      <path
         d="m 29.736989,286.65534 -1.707017,0 0,-8.18936 1.707017,0 0,8.18936 z"
         style=""
         id="path4202" />
      <path
         d="m 39.644165,286.65534 -1.707016,0 0,-0.76168 -0.02161,0 q -0.58341,0.89673 -1.712418,0.89673 -1.037174,0 -1.669203,-0.72927 -0.632028,-0.73466 -0.632028,-2.04734 0,-1.37209 0.696852,-2.19859 0.696851,-0.8265 1.825859,-0.8265 1.069586,0 1.490938,0.76708 l 0.02161,0 0,-3.28979 1.707016,0 0,8.18936 z m -1.674604,-2.69017 0,-0.41595 q 0,-0.5402 -0.313313,-0.89673 -0.313313,-0.35653 -0.815695,-0.35653 -0.567205,0 -0.88592,0.44836 -0.318715,0.44296 -0.318715,1.22085 0,0.72926 0.307911,1.1236 0.307912,0.39434 0.853509,0.39434 0.518587,0 0.842704,-0.41595 0.329519,-0.41595 0.329519,-1.10199 z"
         style=""
         id="path4204" />
      <path
         d="m 45.683543,286.65534 -1.615183,0 0,-0.79409 -0.02161,0 q -0.556401,0.92914 -1.647595,0.92914 -0.80489,0 -1.269458,-0.45377 -0.459166,-0.45916 -0.459166,-1.22084 0,-1.60978 1.906889,-1.85827 l 1.501742,-0.19987 q 0,-0.90753 -0.983155,-0.90753 -0.988557,0 -1.879879,0.58881 l 0,-1.28566 q 0.356529,-0.18367 0.972351,-0.32412 0.621225,-0.14045 1.129008,-0.14045 2.366054,0 2.366054,2.36065 l 0,3.306 z m -1.604379,-2.24721 0,-0.37274 -1.004763,0.12965 q -0.8319,0.10804 -0.8319,0.75087 0,0.2917 0.199872,0.48077 0.205274,0.18367 0.550999,0.18367 0.480774,0 0.783283,-0.32952 0.302509,-0.33492 0.302509,-0.8427 z"
         style=""
         id="path4206" />
      <path
         d="m 57.070858,286.65534 -1.901487,0 -0.550999,-1.72323 -2.754995,0 -0.545597,1.72323 -1.890682,0 2.819818,-7.7464 2.068947,0 2.754995,7.7464 z m -2.85223,-3.06291 -0.831901,-2.60374 q -0.09183,-0.2917 -0.129646,-0.69685 l -0.04322,0 q -0.02701,0.34032 -0.135049,0.67524 l -0.842704,2.62535 1.982516,0 z"
         style=""
         id="path4208" />
      <path
         d="m 66.653918,286.65534 -1.701615,0 0,-3.15474 q 0,-1.20464 -0.88592,-1.20464 -0.421352,0 -0.686047,0.36193 -0.264696,0.36193 -0.264696,0.90213 l 0,3.09532 -1.707016,0 0,-3.18715 q 0,-1.17223 -0.869714,-1.17223 -0.437558,0 -0.702254,0.34573 -0.259293,0.34572 -0.259293,0.93994 l 0,3.07371 -1.707017,0 0,-5.5316 1.707017,0 0,0.86431 0.02161,0 q 0.264696,-0.44296 0.740068,-0.71846 0.480773,-0.2809 1.047978,-0.2809 1.172223,0 1.604379,1.03177 0.632028,-1.03177 1.858271,-1.03177 1.804252,0 1.804252,2.2256 l 0,3.44105 z"
         style=""
         id="path4210" />
      <path
         d="m 72.606864,286.65534 -1.615183,0 0,-0.79409 -0.02161,0 q -0.556401,0.92914 -1.647595,0.92914 -0.80489,0 -1.269458,-0.45377 -0.459166,-0.45916 -0.459166,-1.22084 0,-1.60978 1.906889,-1.85827 l 1.501742,-0.19987 q 0,-0.90753 -0.983155,-0.90753 -0.988557,0 -1.879879,0.58881 l 0,-1.28566 q 0.356529,-0.18367 0.972351,-0.32412 0.621224,-0.14045 1.129008,-0.14045 2.366054,0 2.366054,2.36065 l 0,3.306 z m -1.604379,-2.24721 0,-0.37274 -1.004763,0.12965 q -0.8319,0.10804 -0.8319,0.75087 0,0.2917 0.199872,0.48077 0.205274,0.18367 0.550999,0.18367 0.480773,0 0.783283,-0.32952 0.302509,-0.33492 0.302509,-0.8427 z"
         style=""
         id="path4212" />
      <path
         d="m 78.349137,286.65534 -4.964393,0 0,-0.70766 2.776603,-3.56529 -2.501103,0 0,-1.25865 4.667285,0 0,0.8427 -2.63075,3.43024 2.652358,0 0,1.25866 z"
         style=""
         id="path4214" />
      <path
         d="m 81.898222,286.79039 q -1.3829,0 -2.176986,-0.77248 -0.788685,-0.77788 -0.788685,-2.10676 0,-1.3721 0.821096,-2.14458 0.821097,-0.77788 2.220202,-0.77788 1.377497,0 2.16078,0.77788 0.783283,0.77248 0.783283,2.04734 0,1.3775 -0.810293,2.17699 -0.80489,0.79949 -2.209397,0.79949 z m 0.04321,-4.49443 q -0.605018,0 -0.939939,0.41595 -0.334921,0.41595 -0.334921,1.17763 0,1.59357 1.285664,1.59357 1.226243,0 1.226243,-1.63679 0,-1.55036 -1.237047,-1.55036 z m 1.9393,-2.04734 -1.118203,0 -0.853508,-1.01556 -0.794087,1.01556 -1.118204,0 1.269459,-1.75563 1.339683,0 1.27486,1.75563 z"
         style=""
         id="path4216" />
      <path
         d="m 91.367836,286.65534 -1.701615,0 0,-3.07371 q 0,-1.28567 -0.918331,-1.28567 -0.44296,0 -0.729263,0.34033 -0.286304,0.34032 -0.286304,0.86431 l 0,3.15474 -1.707016,0 0,-5.5316 1.707016,0 0,0.87512 0.02161,0 q 0.61042,-1.01017 1.777242,-1.01017 1.836663,0 1.836663,2.27962 l 0,3.38703 z"
         style=""
         id="path4218" />
      <path
         d="m 93.588044,280.24862 q -0.432156,0 -0.707655,-0.25389 -0.2755,-0.25929 -0.2755,-0.63203 0,-0.38353 0.2755,-0.62662 0.275499,-0.24309 0.707655,-0.24309 0.437558,0 0.707656,0.24309 0.275499,0.24309 0.275499,0.62662 0,0.38894 -0.275499,0.63743 -0.270098,0.24849 -0.707656,0.24849 z m 0.842705,6.40672 -1.707017,0 0,-5.5316 1.707017,0 0,5.5316 z"
         style=""
         id="path4220" />
      <path
         d="m 100.48093,286.65534 -1.61518,0 0,-0.79409 -0.02161,0 q -0.556401,0.92914 -1.647595,0.92914 -0.80489,0 -1.269458,-0.45377 -0.459166,-0.45916 -0.459166,-1.22084 0,-1.60978 1.906889,-1.85827 l 1.501742,-0.19987 q 0,-0.90753 -0.983155,-0.90753 -0.988557,0 -1.879879,0.58881 l 0,-1.28566 q 0.356529,-0.18367 0.972351,-0.32412 0.621225,-0.14045 1.129008,-0.14045 2.366051,0 2.366051,2.36065 l 0,3.306 z m -1.604376,-2.24721 0,-0.37274 -1.004763,0.12965 q -0.8319,0.10804 -0.8319,0.75087 0,0.2917 0.199872,0.48077 0.205274,0.18367 0.550999,0.18367 0.480774,0 0.783283,-0.32952 0.302509,-0.33492 0.302509,-0.8427 z"
         style=""
         id="path4222" />
    </g>
  </g>
</svg>
